HIERARCHY
ROOT root
{
	OFFSET 0.000000 0.000000 0.000000
	CHANNELS 6 Xposition Yposition Zposition Zrotation Yrotation Xrotation
	JOINT lhip
	{
		OFFSET 0.058581 -0.082280 -0.017664
		CHANNELS 3 Zrotation Yrotation Xrotation
		JOINT lknee
		{
			OFFSET 0.043451 -0.386469 0.008037
			CHANNELS 3 Zrotation Yrotation Xrotation
			JOINT lankle
			{
				OFFSET -0.014790 -0.426874 -0.037428
				CHANNELS 3 Zrotation Yrotation Xrotation
				JOINT ltoe
				{
					OFFSET 0.041054 -0.060286 0.122042
					CHANNELS 3 Zrotation Yrotation Xrotation
					End Site
					{
						OFFSET 0.000000 0.000000 0.000000
					}
				}
			}
		}
	}
	JOINT rhip
	{
		OFFSET -0.060310 -0.090513 -0.013543
		CHANNELS 3 Zrotation Yrotation Xrotation
		JOINT rknee
		{
			OFFSET -0.043257 -0.383688 -0.004843
			CHANNELS 3 Zrotation Yrotation Xrotation
			JOINT rankle
			{
				OFFSET 0.019056 -0.420046 -0.034562
				CHANNELS 3 Zrotation Yrotation Xrotation
				JOINT rtoe
				{
					OFFSET -0.034840 -0.062106 0.130323
					CHANNELS 3 Zrotation Yrotation Xrotation
					End Site
					{
						OFFSET 0.000000 0.000000 0.000000
					}
				}
			}
		}
	}
	JOINT lowerback
	{
		OFFSET 0.004439 0.124404 -0.038385
		CHANNELS 3 Zrotation Yrotation Xrotation
		JOINT upperback
		{
			OFFSET 0.004488 0.137956 0.026820
			CHANNELS 3 Zrotation Yrotation Xrotation
			JOINT chest
			{
				OFFSET -0.002265 0.056032 0.002855
				CHANNELS 3 Zrotation Yrotation Xrotation
				JOINT lowerneck
				{
					OFFSET -0.013390 0.211636 -0.033468
					CHANNELS 3 Zrotation Yrotation Xrotation
					JOINT upperneck
					{
						OFFSET 0.010113 0.088937 0.050410
						CHANNELS 3 Zrotation Yrotation Xrotation
						End Site
						{
							OFFSET 0.000000 0.000000 0.000000
						}
					}
				}
				JOINT lclavicle
				{
					OFFSET 0.071702 0.114000 -0.018898
					CHANNELS 3 Zrotation Yrotation Xrotation
					JOINT lshoulder
					{
						OFFSET 0.122921 0.045205 -0.019046
						CHANNELS 3 Zrotation Yrotation Xrotation
						JOINT lelbow
						{
							OFFSET 0.255332 -0.015649 -0.022946
							CHANNELS 3 Zrotation Yrotation Xrotation
							JOINT lwrist
							{
								OFFSET 0.265709 0.012698 -0.007375
								CHANNELS 3 Zrotation Yrotation Xrotation
								End Site
								{
									OFFSET 0.000000 0.000000 0.000000
								}
							}
						}
					}
				}
				JOINT rclavicle
				{
					OFFSET -0.082954 0.112472 -0.023707
					CHANNELS 3 Zrotation Yrotation Xrotation
					JOINT rshoulder
					{
						OFFSET -0.113228 0.046853 -0.008472
						CHANNELS 3 Zrotation Yrotation Xrotation
						JOINT relbow
						{
							OFFSET -0.260127 -0.014369 -0.031269
							CHANNELS 3 Zrotation Yrotation Xrotation
							JOINT rwrist
							{
								OFFSET -0.269108 0.006794 -0.006027
								CHANNELS 3 Zrotation Yrotation Xrotation
								End Site
								{
									OFFSET 0.000000 0.000000 0.000000
								}
							}
						}
					}
				}
			}
		}
	}
}
MOTION
Frames: 7
Frame Time: 0.033333
2.344574 0.721663 0.997469 -77.662947 -1.088375 85.304143 -2.345459 -3.465698 1.945778 -1.411613 -13.665369 2.896433 1.064544 6.640901 -6.889401 0.000000 -0.000000 0.000000 1.243495 -6.455092 3.192540 -3.319067 -6.561754 4.797772 -0.314800 -13.162164 -10.639961 0.000000 -0.000000 0.000000 -0.239513 4.685262 5.650476 -1.584249 -1.184815 5.153577 0.330234 2.110739 -4.481834 -1.663724 26.844352 -6.536507 0.002790 26.448030 1.505745 -30.495240 -9.134116 1.413255 -50.464751 -5.028793 12.858977 0.492400 -20.170787 10.235645 -6.076855 -7.665839 5.614535 29.407674 12.293489 11.270121 52.658366 2.111650 17.084274 -4.505288 24.166188 7.149379 3.523399 6.948260 6.361776 
2.344790 0.721922 0.997279 -77.623762 -1.180252 85.483287 -2.388167 -3.555436 1.706439 -1.510039 -13.844157 2.929458 1.065895 6.919533 -6.755701 0.000000 -0.000000 0.000000 1.154079 -6.172993 2.983288 -3.244645 -6.609456 4.831376 -0.011098 -13.614621 -10.656091 0.000000 -0.000000 0.000000 -0.204437 4.542794 5.391157 -1.594193 -1.069890 5.134313 0.201765 2.099746 -4.240629 -1.995459 26.855548 -6.522231 -0.086777 26.361377 1.006163 -30.202655 -8.978351 1.188222 -50.696723 -5.087930 12.981121 0.451711 -20.413738 10.267566 -6.248434 -7.388583 5.696725 29.151856 12.001386 10.912634 52.837634 2.325303 16.982118 -4.170633 24.105959 7.413387 3.841513 6.889614 6.764765 
2.344888 0.722489 0.997143 -77.625823 -1.226852 85.501047 -2.427500 -3.547109 1.801596 -1.390863 -13.894172 2.672272 1.211723 7.021799 -6.710243 0.000000 -0.000000 0.000000 1.100511 -6.170302 2.990722 -3.178896 -6.450550 4.712351 -0.001730 -13.594645 -10.531562 0.000000 -0.000000 0.000000 -0.094748 4.570803 5.478469 -1.620117 -1.039320 5.023434 0.105425 2.014793 -4.196879 -2.022101 26.700678 -6.464410 -0.128505 26.480988 0.782152 -30.154980 -8.857681 0.988064 -50.744768 -5.041769 13.098958 0.334806 -20.768314 10.114178 -6.569958 -6.814027 5.455393 28.784568 11.599274 10.509272 53.205584 2.386736 17.088841 -3.974782 24.322676 7.725090 4.199364 6.524709 6.973601 
2.344902 0.723231 0.996932 -77.641751 -1.240945 85.619390 -2.363053 -3.413290 1.720518 -1.351359 -13.928955 2.539825 1.140443 7.000158 -6.679232 0.000000 -0.000000 0.000000 1.093356 -6.194560 2.796832 -3.173037 -6.476294 4.783335 0.019957 -13.594465 -10.507506 0.000000 -0.000000 0.000000 0.086282 4.448896 5.604963 -1.685831 -0.960260 4.662552 -0.056473 2.014524 -4.123066 -1.994107 26.759979 -6.307792 -0.190434 26.554990 0.663313 -30.153110 -8.579764 0.673255 -50.656703 -4.893219 13.599976 0.084419 -20.898679 10.670615 -5.411271 -7.389433 5.350003 28.402619 11.027637 10.005593 53.676108 2.450959 17.363466 -3.449265 24.418639 8.380942 3.430595 6.560917 7.094871 
2.344952 0.723713 0.996781 -77.639789 -1.298049 85.659455 -2.425402 -3.383414 1.653744 -1.302536 -14.074757 2.574960 1.192072 7.081646 -6.753140 0.000000 -0.000000 0.000000 1.065215 -6.218014 2.690013 -3.212149 -6.378817 4.852898 -0.094892 -13.582588 -10.357329 0.000000 -0.000000 0.000000 0.116258 4.476834 5.511656 -1.645193 -0.988008 4.949012 -0.187362 1.982003 -4.264123 -1.963153 26.673980 -6.345194 -0.292075 26.709775 0.751528 -30.034879 -8.568565 0.493937 -50.802565 -4.809392 14.196858 -0.165915 -21.286759 11.232416 -4.607872 -6.948714 5.921169 28.135941 10.715093 9.691122 53.952016 2.595818 17.504883 -3.189662 24.535111 8.539967 3.221894 6.337155 7.309121 
2.344576 0.724191 0.996507 -77.719778 -1.312622 85.692797 -2.404541 -3.366290 1.575002 -1.314173 -14.031470 2.686911 1.288091 7.127059 -6.836757 0.000000 -0.000000 0.000000 1.083615 -6.174551 2.655777 -3.194794 -6.251073 4.785869 -0.072650 -13.548390 -10.208041 0.000000 -0.000000 0.000000 0.290149 4.473082 5.684134 -1.720742 -0.930708 4.612251 -0.309886 1.931294 -4.189532 -1.957108 26.559435 -6.231329 -0.271321 26.857316 0.748877 -29.992233 -8.407600 0.338643 -50.824440 -4.707328 14.552567 -0.192583 -21.507519 11.181395 -4.649063 -6.837393 5.517021 27.685531 10.242502 9.239434 54.528972 2.649171 17.575403 -3.185957 24.853179 8.054982 3.630413 6.229440 6.049953 
2.344049 0.724752 0.996395 -77.866891 -1.415504 85.719272 -2.545096 -3.370819 1.702559 -1.126531 -13.966352 2.434689 1.306478 7.270177 -6.818045 0.000000 -0.000000 0.000000 1.015464 -6.138930 2.618950 -3.225109 -6.195541 4.773575 -0.026203 -13.555107 -10.113033 0.000000 -0.000000 0.000000 0.135317 4.477759 5.550885 -1.637226 -0.816135 4.770237 -0.325974 1.922548 -4.212782 -1.793879 26.508277 -6.102106 -0.457838 26.810065 0.521765 -30.066709 -8.183389 -0.074495 -50.790025 -4.755059 14.545670 -0.542517 -21.430487 11.027828 -4.702830 -6.848745 6.064856 27.589179 9.888510 8.969414 54.665387 2.572770 18.029152 -2.521733 24.580728 9.886486 3.102624 6.352838 8.809999 
